<svg width="22" height="22" viewBox="0 0 22 22" fill="none" xmlns="http://www.w3.org/2000/svg">
<circle cx="11" cy="11" r="10" stroke="black"/>
<path d="M13.2677 13.2C13.2677 13.48 13.2177 13.74 13.1177 13.98C13.0244 14.2133 12.8811 14.42 12.6877 14.6C12.5011 14.7733 12.2644 14.9067 11.9777 15C11.6911 15.1 11.3611 15.15 10.9877 15.15C10.5544 15.15 10.1911 15.09 9.89773 14.97C9.61107 14.8433 9.38107 14.6867 9.20773 14.5C9.0344 14.3133 8.91107 14.11 8.83773 13.89C8.7644 13.6633 8.72773 13.45 8.72773 13.25C8.72773 13.0567 8.75773 12.8733 8.81773 12.7C8.8844 12.52 8.96773 12.3533 9.06773 12.2C9.1744 12.0467 9.2944 11.91 9.42773 11.79C9.56773 11.6633 9.7144 11.5533 9.86773 11.46C9.2144 11.0867 8.88773 10.5367 8.88773 9.81C8.88773 9.55667 8.93773 9.31667 9.03773 9.09C9.13773 8.85667 9.27773 8.65333 9.45773 8.48C9.6444 8.30667 9.86773 8.17 10.1277 8.07C10.3877 7.96333 10.6777 7.91 10.9977 7.91C11.3711 7.91 11.6911 7.96667 11.9577 8.08C12.2244 8.19333 12.4411 8.34 12.6077 8.52C12.7811 8.69333 12.9044 8.88667 12.9777 9.1C13.0577 9.31333 13.0977 9.52 13.0977 9.72C13.0977 9.91333 13.0677 10.0967 13.0077 10.27C12.9544 10.4367 12.8777 10.5933 12.7777 10.74C12.6844 10.8867 12.5744 11.0167 12.4477 11.13C12.3277 11.2433 12.2011 11.3433 12.0677 11.43C12.8544 11.8033 13.2544 12.3933 13.2677 13.2ZM9.66773 13.26C9.66773 13.38 9.68773 13.5067 9.72773 13.64C9.7744 13.7667 9.85107 13.8867 9.95773 14C10.0644 14.1067 10.2011 14.1967 10.3677 14.27C10.5344 14.3433 10.7444 14.38 10.9977 14.38C11.2244 14.38 11.4211 14.3467 11.5877 14.28C11.7611 14.2133 11.9011 14.13 12.0077 14.03C12.1144 13.9233 12.1944 13.8033 12.2477 13.67C12.3011 13.5367 12.3277 13.4 12.3277 13.26C12.3277 13.0467 12.2877 12.86 12.2077 12.7C12.1277 12.54 12.0111 12.4 11.8577 12.28C11.7111 12.16 11.5311 12.06 11.3177 11.98C11.1111 11.8933 10.8744 11.82 10.6077 11.76C10.3077 11.9267 10.0744 12.1333 9.90773 12.38C9.74773 12.6267 9.66773 12.92 9.66773 13.26ZM12.1677 9.71C12.1677 9.61 12.1444 9.5 12.0977 9.38C12.0577 9.26 11.9911 9.15 11.8977 9.05C11.8044 8.94333 11.6844 8.85667 11.5377 8.79C11.3911 8.71667 11.2111 8.68 10.9977 8.68C10.7844 8.68 10.6011 8.71333 10.4477 8.78C10.3011 8.84667 10.1811 8.93333 10.0877 9.04C9.9944 9.14 9.9244 9.25333 9.87773 9.38C9.83773 9.5 9.81773 9.62 9.81773 9.74C9.81773 9.88667 9.8444 10.0333 9.89773 10.18C9.95107 10.3267 10.0344 10.4633 10.1477 10.59C10.2611 10.7167 10.4077 10.83 10.5877 10.93C10.7744 11.03 10.9944 11.11 11.2477 11.17C11.5277 11.0033 11.7511 10.81 11.9177 10.59C12.0844 10.3633 12.1677 10.07 12.1677 9.71Z" fill="black"/>
</svg>
