<svg width="22" height="22" viewBox="0 0 22 22" fill="none" xmlns="http://www.w3.org/2000/svg">
<circle cx="11" cy="11" r="10" stroke="black"/>
<path d="M6.28547 9.5C6.66547 9.35333 7.03547 9.16667 7.39547 8.94C7.75547 8.70667 8.08547 8.41667 8.38547 8.07H9.04547V15H8.11547V9.36C8.03547 9.43333 7.93547 9.51 7.81547 9.59C7.70214 9.67 7.57547 9.74667 7.43547 9.82C7.30214 9.89333 7.1588 9.96333 7.00547 10.03C6.8588 10.0967 6.71547 10.1533 6.57547 10.2L6.28547 9.5ZM11.93 9.5C12.31 9.35333 12.68 9.16667 13.04 8.94C13.4 8.70667 13.73 8.41667 14.03 8.07H14.69V15H13.76V9.36C13.68 9.43333 13.58 9.51 13.46 9.59C13.3467 9.67 13.22 9.74667 13.08 9.82C12.9467 9.89333 12.8033 9.96333 12.65 10.03C12.5033 10.0967 12.36 10.1533 12.22 10.2L11.93 9.5Z" fill="black"/>
</svg>
