<svg width="22" height="22" viewBox="0 0 22 22" fill="none" xmlns="http://www.w3.org/2000/svg">
<circle cx="11" cy="11" r="10" stroke="black"/>
<path d="M10.1677 10.74C11.1744 10.78 11.9111 11 12.3777 11.4C12.8511 11.8 13.0877 12.3433 13.0877 13.03C13.0877 13.3367 13.0344 13.62 12.9277 13.88C12.8277 14.14 12.6711 14.3633 12.4577 14.55C12.2511 14.7367 11.9877 14.8833 11.6677 14.99C11.3477 15.0967 10.9677 15.15 10.5277 15.15C10.3544 15.15 10.1777 15.1367 9.99773 15.11C9.81773 15.0833 9.65107 15.05 9.49773 15.01C9.3444 14.97 9.20773 14.93 9.08773 14.89C8.96773 14.85 8.88107 14.8167 8.82773 14.79L9.00773 13.98C9.12107 14.0333 9.3044 14.1033 9.55773 14.19C9.81773 14.2767 10.1344 14.32 10.5077 14.32C10.8077 14.32 11.0577 14.2867 11.2577 14.22C11.4644 14.1533 11.6311 14.0633 11.7577 13.95C11.8844 13.8367 11.9744 13.7067 12.0277 13.56C12.0877 13.4067 12.1177 13.2467 12.1177 13.08C12.1177 12.8267 12.0744 12.6033 11.9877 12.41C11.9011 12.21 11.7477 12.0433 11.5277 11.91C11.3077 11.7767 11.0144 11.6767 10.6477 11.61C10.2811 11.5367 9.81773 11.5 9.25773 11.5C9.29773 11.1733 9.32773 10.8667 9.34773 10.58C9.3744 10.2933 9.39773 10.0133 9.41773 9.74C9.43773 9.46667 9.4544 9.19667 9.46773 8.93C9.48107 8.65667 9.4944 8.37 9.50773 8.07H12.8477V8.86H10.3177C10.3111 8.96 10.3011 9.09667 10.2877 9.27C10.2744 9.43667 10.2611 9.61333 10.2477 9.8C10.2344 9.98 10.2211 10.1567 10.2077 10.33C10.1944 10.5033 10.1811 10.64 10.1677 10.74Z" fill="black"/>
</svg>
