<svg width="22" height="22" viewBox="0 0 22 22" fill="none" xmlns="http://www.w3.org/2000/svg">
<circle cx="11" cy="11" r="10" stroke="black"/>
<path d="M8.57773 12.6C8.7044 12.3067 8.87773 11.9667 9.09773 11.58C9.31773 11.1867 9.5644 10.7833 9.83773 10.37C10.1177 9.95667 10.4144 9.55 10.7277 9.15C11.0477 8.75 11.3677 8.39 11.6877 8.07H12.5777V12.47H13.3977V13.23H12.5777V15H11.6777V13.23H8.57773V12.6ZM11.6777 9.17C11.4777 9.38333 11.2744 9.62333 11.0677 9.89C10.8677 10.15 10.6711 10.4233 10.4777 10.71C10.2844 10.9967 10.1011 11.29 9.92773 11.59C9.76107 11.89 9.61107 12.1833 9.47773 12.47H11.6777V9.17Z" fill="black"/>
</svg>
