<svg width="22" height="22" viewBox="0 0 22 22" fill="none" xmlns="http://www.w3.org/2000/svg">
<circle cx="11" cy="11" r="10" stroke="black"/>
<path d="M11.0482 11.28C11.2015 11.28 11.3615 11.2667 11.5282 11.24C11.6949 11.2067 11.8182 11.1633 11.8982 11.11V11.02C11.8982 10.9933 11.8982 10.9667 11.8982 10.94C11.9049 10.9133 11.9082 10.89 11.9082 10.87C11.9015 10.63 11.8815 10.4067 11.8482 10.2C11.8149 9.98667 11.7582 9.80333 11.6782 9.65C11.5982 9.49 11.4882 9.36667 11.3482 9.28C11.2149 9.18667 11.0482 9.14 10.8482 9.14C10.6882 9.14 10.5482 9.17333 10.4282 9.24C10.3082 9.30667 10.2115 9.39333 10.1382 9.5C10.0649 9.60667 10.0082 9.72333 9.9682 9.85C9.93487 9.97667 9.9182 10.1 9.9182 10.22C9.9182 10.58 10.0049 10.8467 10.1782 11.02C10.3582 11.1933 10.6482 11.28 11.0482 11.28ZM11.7782 12.25C11.6382 12.3167 11.4815 12.3667 11.3082 12.4C11.1415 12.4267 10.9982 12.44 10.8782 12.44C10.4449 12.44 10.0749 12.39 9.7682 12.29C9.46154 12.1833 9.2082 12.0367 9.0082 11.85C8.81487 11.6567 8.67154 11.4267 8.5782 11.16C8.48487 10.8933 8.4382 10.6 8.4382 10.28C8.4382 10.0133 8.48154 9.74 8.5682 9.46C8.66154 9.18 8.80487 8.92667 8.9982 8.7C9.19154 8.46667 9.43487 8.27667 9.7282 8.13C10.0282 7.97667 10.3882 7.9 10.8082 7.9C11.6682 7.9 12.3149 8.16667 12.7482 8.7C13.1882 9.22667 13.4082 9.98667 13.4082 10.98C13.4082 11.6333 13.3215 12.21 13.1482 12.71C12.9815 13.21 12.7182 13.63 12.3582 13.97C12.0049 14.31 11.5515 14.57 10.9982 14.75C10.4449 14.9233 9.7882 15.0133 9.0282 15.02C9.02154 14.8067 9.01154 14.6 8.9982 14.4C8.98487 14.2 8.97154 13.9933 8.9582 13.78C9.3382 13.7733 9.68154 13.7467 9.9882 13.7C10.2949 13.6467 10.5649 13.5633 10.7982 13.45C11.0315 13.33 11.2282 13.1733 11.3882 12.98C11.5549 12.7867 11.6849 12.5433 11.7782 12.25Z" fill="black"/>
</svg>
