<svg width="22" height="22" viewBox="0 0 22 22" fill="none" xmlns="http://www.w3.org/2000/svg">
<circle cx="11" cy="11" r="10" stroke="black"/>
<path d="M9.80773 15C9.84773 14.4667 9.94107 13.9067 10.0877 13.32C10.2411 12.7267 10.4277 12.1533 10.6477 11.6C10.8677 11.04 11.1077 10.5233 11.3677 10.05C11.6344 9.57 11.8944 9.18 12.1477 8.88H8.77773V8.07H13.1877V8.84C12.9677 9.09333 12.7244 9.44333 12.4577 9.89C12.1911 10.33 11.9377 10.8267 11.6977 11.38C11.4644 11.9267 11.2611 12.5133 11.0877 13.14C10.9211 13.76 10.8177 14.38 10.7777 15H9.80773Z" fill="black"/>
</svg>
