<svg width="22" height="22" viewBox="0 0 22 22" fill="none" xmlns="http://www.w3.org/2000/svg">
<circle cx="11" cy="11" r="10" stroke="black"/>
<path d="M10.8982 11.74C10.7515 11.74 10.5949 11.7533 10.4282 11.78C10.2615 11.8067 10.1315 11.8433 10.0382 11.89C10.0382 11.9167 10.0349 11.9567 10.0282 12.01C10.0282 12.0633 10.0282 12.11 10.0282 12.15C10.0282 12.39 10.0449 12.6167 10.0782 12.83C10.1115 13.0433 10.1682 13.23 10.2482 13.39C10.3282 13.55 10.4349 13.6767 10.5682 13.77C10.7015 13.8567 10.8682 13.9 11.0682 13.9C11.2349 13.9 11.3749 13.8667 11.4882 13.8C11.6082 13.7267 11.7049 13.6367 11.7782 13.53C11.8582 13.4233 11.9149 13.3067 11.9482 13.18C11.9882 13.0467 12.0082 12.92 12.0082 12.8C12.0082 12.46 11.9215 12.2 11.7482 12.02C11.5815 11.8333 11.2982 11.74 10.8982 11.74ZM11.0882 10.58C11.5215 10.58 11.8882 10.64 12.1882 10.76C12.4949 10.8733 12.7449 11.03 12.9382 11.23C13.1315 11.43 13.2715 11.6633 13.3582 11.93C13.4449 12.1967 13.4882 12.48 13.4882 12.78C13.4882 13.0467 13.4382 13.32 13.3382 13.6C13.2449 13.88 13.0982 14.1333 12.8982 14.36C12.7049 14.5867 12.4549 14.7733 12.1482 14.92C11.8482 15.0667 11.4915 15.14 11.0782 15.14C10.2449 15.14 9.61154 14.8767 9.1782 14.35C8.74487 13.8233 8.5282 13.0967 8.5282 12.17C8.5282 11.5033 8.63154 10.9133 8.8382 10.4C9.04487 9.88667 9.3382 9.45667 9.7182 9.11C10.1049 8.75667 10.5682 8.49 11.1082 8.31C11.6549 8.12333 12.2682 8.02667 12.9482 8.02C12.9615 8.22667 12.9749 8.43 12.9882 8.63C13.0015 8.82333 13.0149 9.02667 13.0282 9.24C12.6882 9.24667 12.3682 9.28 12.0682 9.34C11.7749 9.39333 11.5049 9.48 11.2582 9.6C11.0182 9.72 10.8082 9.87667 10.6282 10.07C10.4482 10.2567 10.3082 10.4867 10.2082 10.76C10.3549 10.6933 10.5049 10.6467 10.6582 10.62C10.8115 10.5933 10.9549 10.58 11.0882 10.58Z" fill="black"/>
</svg>
