<svg width="22" height="22" viewBox="0 0 22 22" fill="none" xmlns="http://www.w3.org/2000/svg">
<circle cx="11" cy="11" r="10" stroke="black"/>
<path d="M6.28547 9.5C6.66547 9.35333 7.03547 9.16667 7.39547 8.94C7.75547 8.70667 8.08547 8.41667 8.38547 8.07H9.04547V15H8.11547V9.36C8.03547 9.43333 7.93547 9.51 7.81547 9.59C7.70214 9.67 7.57547 9.74667 7.43547 9.82C7.30214 9.89333 7.1588 9.96333 7.00547 10.03C6.8588 10.0967 6.71547 10.1533 6.57547 10.2L6.28547 9.5ZM11.5 11.53C11.5 10.37 11.7033 9.47667 12.11 8.85C12.5233 8.22333 13.0933 7.91 13.82 7.91C14.5467 7.91 15.1133 8.22333 15.52 8.85C15.9333 9.47667 16.14 10.37 16.14 11.53C16.14 12.69 15.9333 13.5833 15.52 14.21C15.1133 14.8367 14.5467 15.15 13.82 15.15C13.0933 15.15 12.5233 14.8367 12.11 14.21C11.7033 13.5833 11.5 12.69 11.5 11.53ZM15.16 11.53C15.16 11.15 15.1367 10.79 15.09 10.45C15.05 10.11 14.9767 9.81333 14.87 9.56C14.77 9.30667 14.6333 9.10667 14.46 8.96C14.2867 8.80667 14.0733 8.73 13.82 8.73C13.5667 8.73 13.3533 8.80667 13.18 8.96C13.0067 9.10667 12.8667 9.30667 12.76 9.56C12.66 9.81333 12.5867 10.11 12.54 10.45C12.5 10.79 12.48 11.15 12.48 11.53C12.48 11.91 12.5 12.27 12.54 12.61C12.5867 12.95 12.66 13.2467 12.76 13.5C12.8667 13.7533 13.0067 13.9567 13.18 14.11C13.3533 14.2567 13.5667 14.33 13.82 14.33C14.0733 14.33 14.2867 14.2567 14.46 14.11C14.6333 13.9567 14.77 13.7533 14.87 13.5C14.9767 13.2467 15.05 12.95 15.09 12.61C15.1367 12.27 15.16 11.91 15.16 11.53Z" fill="black"/>
</svg>
