<svg width="22" height="22" viewBox="0 0 22 22" fill="none" xmlns="http://www.w3.org/2000/svg">
<circle cx="11" cy="11" r="10" stroke="black"/>
<path d="M10.4382 15.15C10.2582 15.15 10.0682 15.1367 9.8682 15.11C9.6682 15.09 9.47487 15.06 9.2882 15.02C9.10154 14.98 8.93154 14.9367 8.7782 14.89C8.62487 14.8433 8.50487 14.8 8.4182 14.76L8.7082 13.52C8.88154 13.5933 9.10154 13.6733 9.3682 13.76C9.64154 13.84 9.9782 13.88 10.3782 13.88C10.8382 13.88 11.1749 13.7933 11.3882 13.62C11.6015 13.4467 11.7082 13.2133 11.7082 12.92C11.7082 12.74 11.6682 12.59 11.5882 12.47C11.5149 12.3433 11.4115 12.2433 11.2782 12.17C11.1449 12.09 10.9849 12.0367 10.7982 12.01C10.6182 11.9767 10.4249 11.96 10.2182 11.96H9.6382V10.76H10.2982C10.4449 10.76 10.5849 10.7467 10.7182 10.72C10.8582 10.6933 10.9815 10.65 11.0882 10.59C11.1949 10.5233 11.2782 10.4367 11.3382 10.33C11.4049 10.2167 11.4382 10.0767 11.4382 9.91C11.4382 9.78333 11.4115 9.67333 11.3582 9.58C11.3049 9.48667 11.2349 9.41 11.1482 9.35C11.0682 9.29 10.9715 9.24667 10.8582 9.22C10.7515 9.18667 10.6415 9.17 10.5282 9.17C10.2415 9.17 9.97487 9.21333 9.7282 9.3C9.4882 9.38667 9.2682 9.49333 9.0682 9.62L8.5382 8.53C8.64487 8.46333 8.7682 8.39333 8.9082 8.32C9.05487 8.24667 9.21487 8.18 9.3882 8.12C9.56154 8.06 9.74487 8.01 9.9382 7.97C10.1382 7.93 10.3482 7.91 10.5682 7.91C10.9749 7.91 11.3249 7.96 11.6182 8.06C11.9182 8.15333 12.1649 8.29 12.3582 8.47C12.5515 8.64333 12.6949 8.85 12.7882 9.09C12.8815 9.32333 12.9282 9.58 12.9282 9.86C12.9282 10.1333 12.8515 10.4 12.6982 10.66C12.5449 10.9133 12.3382 11.1067 12.0782 11.24C12.4382 11.3867 12.7149 11.6067 12.9082 11.9C13.1082 12.1867 13.2082 12.5333 13.2082 12.94C13.2082 13.26 13.1549 13.5567 13.0482 13.83C12.9415 14.0967 12.7749 14.33 12.5482 14.53C12.3215 14.7233 12.0315 14.8767 11.6782 14.99C11.3315 15.0967 10.9182 15.15 10.4382 15.15Z" fill="black"/>
</svg>
