<svg width="22" height="22" viewBox="0 0 22 22" fill="none" xmlns="http://www.w3.org/2000/svg">
<circle cx="11" cy="11" r="10" stroke="black"/>
<path d="M6.01641 9.51C6.20974 9.43 6.40974 9.34 6.61641 9.24C6.82974 9.13333 7.03641 9.02 7.23641 8.9C7.43641 8.77333 7.62641 8.64333 7.80641 8.51C7.99307 8.37 8.15974 8.22333 8.30641 8.07H9.34641V15H7.85641V10.01C7.65641 10.1433 7.43307 10.2667 7.18641 10.38C6.93974 10.4867 6.69974 10.58 6.46641 10.66L6.01641 9.51ZM15.96 9.89C15.96 10.1433 15.91 10.3867 15.81 10.62C15.71 10.8533 15.58 11.08 15.42 11.3C15.26 11.5133 15.08 11.72 14.88 11.92C14.68 12.12 14.4833 12.31 14.29 12.49C14.19 12.5833 14.08 12.69 13.96 12.81C13.8467 12.9233 13.7367 13.04 13.63 13.16C13.5233 13.28 13.4267 13.3933 13.34 13.5C13.26 13.6 13.21 13.6833 13.19 13.75H16.17V15H11.55C11.5367 14.9267 11.53 14.8333 11.53 14.72C11.53 14.6067 11.53 14.5267 11.53 14.48C11.53 14.16 11.58 13.8667 11.68 13.6C11.7867 13.3333 11.9233 13.0867 12.09 12.86C12.2567 12.6267 12.4433 12.41 12.65 12.21C12.8633 12.01 13.0733 11.81 13.28 11.61C13.44 11.4567 13.59 11.3133 13.73 11.18C13.87 11.04 13.9933 10.9067 14.1 10.78C14.2067 10.6467 14.29 10.5167 14.35 10.39C14.41 10.2567 14.44 10.1233 14.44 9.99C14.44 9.69667 14.3567 9.49 14.19 9.37C14.0233 9.25 13.8167 9.19 13.57 9.19C13.39 9.19 13.22 9.22 13.06 9.28C12.9067 9.33333 12.7633 9.4 12.63 9.48C12.5033 9.55333 12.3933 9.63 12.3 9.71C12.2067 9.78333 12.1367 9.84333 12.09 9.89L11.35 8.85C11.6433 8.57667 11.9833 8.35333 12.37 8.18C12.7633 8 13.1833 7.91 13.63 7.91C14.0367 7.91 14.3867 7.95667 14.68 8.05C14.9733 8.14333 15.2133 8.27667 15.4 8.45C15.5933 8.61667 15.7333 8.82333 15.82 9.07C15.9133 9.31 15.96 9.58333 15.96 9.89Z" fill="black"/>
</svg>
