<svg width="22" height="22" viewBox="0 0 22 22" fill="none" xmlns="http://www.w3.org/2000/svg">
<circle cx="11" cy="11" r="10" stroke="black"/>
<path d="M12.8477 9.84C12.8477 10.08 12.7977 10.3133 12.6977 10.54C12.6044 10.76 12.4777 10.98 12.3177 11.2C12.1577 11.4133 11.9777 11.6267 11.7777 11.84C11.5777 12.0467 11.3777 12.25 11.1777 12.45C11.0644 12.5633 10.9311 12.6967 10.7777 12.85C10.6311 13.0033 10.4911 13.1633 10.3577 13.33C10.2244 13.4967 10.1111 13.6567 10.0177 13.81C9.93107 13.9633 9.88773 14.0967 9.88773 14.21H13.0777V15H8.87773C8.87107 14.96 8.86773 14.92 8.86773 14.88C8.86773 14.84 8.86773 14.8033 8.86773 14.77C8.86773 14.4567 8.91773 14.1667 9.01773 13.9C9.1244 13.6267 9.26107 13.37 9.42773 13.13C9.5944 12.89 9.78107 12.6633 9.98773 12.45C10.1944 12.2367 10.3977 12.03 10.5977 11.83C10.7644 11.67 10.9211 11.5133 11.0677 11.36C11.2211 11.2 11.3544 11.0433 11.4677 10.89C11.5877 10.73 11.6811 10.5667 11.7477 10.4C11.8211 10.2333 11.8577 10.0567 11.8577 9.87C11.8577 9.67 11.8244 9.5 11.7577 9.36C11.6977 9.22 11.6144 9.10333 11.5077 9.01C11.4011 8.91667 11.2744 8.85 11.1277 8.81C10.9877 8.76333 10.8377 8.74 10.6777 8.74C10.4844 8.74 10.3077 8.76667 10.1477 8.82C9.98773 8.87333 9.8444 8.93667 9.71773 9.01C9.59107 9.07667 9.4844 9.15 9.39773 9.23C9.31107 9.30333 9.2444 9.36 9.19773 9.4L8.73773 8.74C8.79773 8.67333 8.88773 8.59333 9.00773 8.5C9.12773 8.4 9.27107 8.30667 9.43773 8.22C9.6044 8.13333 9.79107 8.06 9.99773 8C10.2044 7.94 10.4277 7.91 10.6677 7.91C11.3944 7.91 11.9377 8.08 12.2977 8.42C12.6644 8.75333 12.8477 9.22667 12.8477 9.84Z" fill="black"/>
</svg>
